<svg version="1.1" xmlns="http://www.w3.org/2000/svg" xmlns:xlink="http://www.w3.org/1999/xlink" x="0px" y="0px" width="16px"
	 height="16px" viewBox="0 0 32 32" enable-background="new 0 0 32 32" xml:space="preserve">
<g id="Layer_1">
	<g>
		<g>
			<polygon class="hover-red" fill="#4D4D4D" points="1.3,23.7 24,1.6 30.8,8.4 8,30.5 		"/>
			<path class="hover-red" fill="#4D4D4D" d="M24,2.7l5.7,5.5l-21.5,21l-5.8-5.5L24,2.7 M24,0.5L0.2,23.7l8,7.7l23.6-23L24,0.5L24,0.5z"/>
		</g>
		<g>
			<polygon class="hover-red" fill="#4D4D4D" points="1.3,8.4 8,1.6 30.8,23.7 24,30.5 		"/>
			<path class="hover-red" fill="#4D4D4D" d="M8,2.7l21.6,21L24,29.2L2.4,8.4L8,2.7 M8,0.5l-8,7.7l23.8,23.2l8-7.7L8,0.5L8,0.5z"/>
		</g>
	</g>
</g>
</svg>